<?xml version="1.0" standalone="no"?>
<!DOCTYPE svg PUBLIC "-//W3C//DTD SVG 20010904//EN"
 "http://www.w3.org/TR/2001/REC-SVG-20010904/DTD/svg10.dtd">
<svg version="1.0" xmlns="http://www.w3.org/2000/svg"
 width="200.000000pt" height="50.000000pt" viewBox="0 0 200.000000 50.000000"
 preserveAspectRatio="xMidYMid meet">

<g transform="translate(0.000000,50.000000) scale(0.100000,-0.100000)"
fill="#fff" stroke="none">
<path d="M191 394 c-42 -35 -43 -88 -3 -127 37 -36 60 -36 33 -1 -27 35 -27
93 0 128 26 33 10 34 -30 0z"/>
<path d="M299 394 c28 -36 29 -106 1 -134 -11 -11 -25 -20 -32 -20 -6 0 -9 -2
-6 -5 9 -9 55 13 77 36 31 34 28 84 -8 120 -37 36 -60 38 -32 3z"/>
<path d="M1579 416 c-2 -2 -3 -43 -1 -90 3 -73 6 -86 20 -86 15 0 17 11 14 90
-2 64 -7 90 -16 90 -7 0 -15 -2 -17 -4z"/>
<path d="M1020 407 c0 -2 9 -21 19 -43 10 -21 25 -58 32 -81 6 -24 16 -43 20
-43 20 0 17 44 -7 104 -19 49 -31 66 -45 66 -10 0 -19 -1 -19 -3z"/>
<path d="M1155 400 c-3 -5 -4 -14 -1 -18 3 -5 6 -39 8 -75 2 -61 4 -67 23 -67
21 0 21 3 13 72 -5 39 -6 78 -4 85 6 15 -30 18 -39 3z"/>
<path d="M758 351 c8 -4 13 -19 12 -32 -4 -49 0 -69 18 -78 18 -9 19 -6 14 42
-5 57 -16 77 -41 77 -13 0 -13 -2 -3 -9z"/>
<path d="M386 335 c-8 -21 3 -43 24 -50 10 -3 24 -12 30 -20 19 -23 -16 -31
-40 -10 -17 15 -20 16 -20 3 0 -21 45 -31 71 -18 28 16 21 50 -16 71 -16 9
-29 22 -27 28 3 17 -15 13 -22 -4z"/>
<path d="M445 340 c3 -5 8 -10 11 -10 2 0 4 5 4 10 0 6 -5 10 -11 10 -5 0 -7
-4 -4 -10z"/>
<path d="M499 346 c0 0 -1 -25 -2 -54 -2 -46 0 -52 18 -52 18 0 20 5 16 46 -3
43 -2 45 20 42 21 -3 24 -8 24 -46 0 -33 4 -42 18 -42 14 0 17 9 17 45 0 38 3
45 20 45 17 0 20 -7 20 -45 0 -37 3 -45 19 -45 16 0 18 7 15 46 -2 25 -6 49
-9 54 -4 6 -173 12 -176 6z"/>
<path d="M715 340 c-8 -13 4 -32 16 -25 12 8 12 35 0 35 -6 0 -13 -4 -16 -10z"/>
<path d="M849 348 c0 -2 -1 -27 -2 -56 -2 -44 1 -52 16 -52 14 0 17 9 17 55 0
42 -3 55 -15 55 -8 0 -15 -1 -16 -2z"/>
<path d="M890 341 c0 -11 26 -22 34 -14 12 12 5 23 -14 23 -11 0 -20 -4 -20
-9z"/>
<path d="M1240 331 c-28 -54 14 -117 63 -93 22 11 22 11 1 11 -32 1 -47 26
-41 66 6 38 -6 47 -23 16z"/>
<path d="M1297 331 c3 -12 12 -21 20 -21 20 0 12 34 -9 38 -12 2 -15 -2 -11
-17z"/>
<path d="M1358 345 c-2 -2 -1 -26 0 -54 3 -39 8 -51 21 -51 13 0 15 8 13 45
-4 43 -3 45 23 45 26 0 27 -2 23 -45 -3 -40 -1 -45 17 -45 19 0 20 5 15 53
l-5 52 -52 1 c-29 1 -53 0 -55 -1z"/>
<path d="M1512 338 c-22 -22 -15 -76 13 -94 14 -9 29 -14 33 -10 4 4 -1 12
-11 17 -20 12 -23 69 -5 87 9 9 9 12 -3 12 -8 0 -20 -5 -27 -12z"/>
<path d="M1651 336 c-7 -8 -11 -30 -9 -48 4 -39 45 -66 75 -49 16 9 16 10 -3
11 -31 0 -47 25 -42 65 4 37 -2 44 -21 21z"/>
<path d="M1707 331 c3 -12 12 -21 20 -21 20 0 12 34 -9 38 -12 2 -15 -2 -11
-17z"/>
<path d="M1768 344 c-17 -16 -6 -44 22 -59 17 -9 30 -22 30 -30 0 -19 16 -19
24 0 9 23 -3 42 -34 55 -16 7 -30 19 -32 27 -2 8 -6 11 -10 7z"/>
<path d="M1825 340 c3 -5 8 -10 11 -10 2 0 4 5 4 10 0 6 -5 10 -11 10 -5 0 -7
-4 -4 -10z"/>
<path d="M719 274 c-11 -14 -10 -18 5 -30 21 -15 44 -8 28 8 -6 6 -8 17 -5 24
7 19 -12 18 -28 -2z"/>
<path d="M1015 250 c-3 -5 -1 -10 4 -10 6 0 11 5 11 10 0 6 -2 10 -4 10 -3 0
-8 -4 -11 -10z"/>
<path d="M1760 250 c0 -5 5 -10 11 -10 5 0 7 5 4 10 -3 6 -8 10 -11 10 -2 0
-4 -4 -4 -10z"/>
<path d="M720 110 c0 -33 19 -40 40 -15 10 12 10 18 0 30 -21 25 -40 18 -40
-15z m22 -12 c-9 -9 -12 -7 -12 12 0 19 3 21 12 12 9 -9 9 -15 0 -24z"/>
<path d="M788 135 c-11 -12 5 -55 21 -55 14 0 14 2 1 10 -13 9 -13 11 0 20 13
9 13 10 0 10 -13 0 -13 1 0 10 13 8 13 10 -1 10 -9 0 -18 -2 -21 -5z"/>
<path d="M852 111 c10 -32 12 -33 25 -16 7 11 13 26 13 34 -1 13 -3 12 -11 -2
-10 -18 -11 -18 -25 0 -12 16 -12 14 -2 -16z"/>
<path d="M914 125 c-9 -22 3 -45 23 -45 15 0 16 2 3 10 -13 9 -13 11 0 20 13
9 13 10 0 10 -13 0 -13 1 0 10 13 8 12 10 -3 10 -10 0 -20 -7 -23 -15z"/>
<path d="M1034 125 c-8 -21 2 -45 19 -45 8 0 20 7 27 15 10 12 10 18 0 30 -7
8 -19 15 -27 15 -7 0 -16 -7 -19 -15z m36 -9 c0 -8 -4 -17 -9 -21 -12 -7 -24
12 -16 25 9 15 25 12 25 -4z"/>
<path d="M1107 133 c-3 -5 -2 -16 2 -26 6 -15 9 -16 25 -4 11 8 16 19 12 25
-8 13 -33 16 -39 5z m28 -13 c3 -5 1 -10 -4 -10 -6 0 -11 5 -11 10 0 6 2 10 4
10 3 0 8 -4 11 -10z"/>
<path d="M1170 110 c0 -22 5 -30 18 -30 14 0 15 2 2 10 -13 9 -13 11 0 20 13
9 13 10 0 10 -13 0 -13 1 0 10 13 8 12 10 -2 10 -13 0 -18 -8 -18 -30z"/>
<path d="M1230 114 c0 -15 3 -24 7 -21 3 4 12 2 19 -4 10 -8 12 -4 11 18 -3
39 -37 46 -37 7z m30 6 c0 -5 -4 -10 -10 -10 -5 0 -10 5 -10 10 0 6 5 10 10
10 6 0 10 -4 10 -10z"/>
<path d="M981 108 c-1 -21 4 -28 17 -28 11 0 13 3 6 8 -7 4 -14 16 -17 27 -4
15 -5 14 -6 -7z"/>
<path d="M293 113 c59 -2 155 -2 215 0 59 1 10 3 -108 3 -118 0 -167 -2 -107
-3z"/>
</g>
</svg>
