<?xml version="1.0" standalone="no"?>
<!DOCTYPE svg PUBLIC "-//W3C//DTD SVG 20010904//EN"
 "http://www.w3.org/TR/2001/REC-SVG-20010904/DTD/svg10.dtd">
<svg version="1.0" xmlns="http://www.w3.org/2000/svg"
 width="1184.000000pt" height="672.000000pt" viewBox="0 0 1184.000000 672.000000"
 preserveAspectRatio="xMidYMid meet">

<g transform="translate(0.000000,672.000000) scale(0.100000,-0.100000)"
fill="#fff" stroke="none">
<path d="M6092 4078 c2 -511 6 -928 9 -928 3 0 60 58 127 129 l122 129 0 482
0 481 83 -88 c46 -48 111 -118 143 -154 161 -180 418 -454 428 -456 6 -1 100
94 208 210 398 428 448 482 456 484 4 2 7 -213 7 -477 l0 -479 61 -63 c33 -35
81 -87 107 -117 26 -29 57 -61 69 -71 l23 -18 0 929 c0 511 -4 929 -8 929 -8
0 -110 -105 -307 -320 -185 -200 -537 -579 -580 -623 l-36 -38 -130 143 c-71
79 -167 183 -214 233 -47 50 -152 164 -235 255 -82 91 -192 208 -243 260 l-92
95 2 -927z"/>
<path d="M4450 4979 c-254 -33 -487 -179 -639 -402 -166 -243 -197 -593 -80
-891 46 -115 62 -143 139 -241 98 -122 251 -232 403 -289 223 -84 513 -72 733
28 196 90 379 271 465 461 96 211 105 505 24 738 -68 197 -253 406 -445 502
-172 87 -391 121 -600 94z m360 -269 c185 -64 323 -181 402 -342 61 -125 72
-176 72 -328 -1 -118 -4 -145 -27 -215 -65 -196 -180 -325 -370 -415 -172 -82
-400 -80 -572 4 -197 97 -323 253 -376 465 -30 117 -23 280 15 397 70 215 270
400 487 449 96 22 285 14 369 -15z"/>
<path d="M3296 2445 c-42 -15 -100 -66 -121 -105 -51 -101 -1 -229 107 -274
54 -23 126 -20 178 7 115 58 144 215 57 314 -58 66 -139 88 -221 58z m99 -76
c51 -14 82 -43 96 -90 10 -31 9 -43 -7 -75 -26 -52 -62 -76 -115 -76 -64 -1
-104 23 -124 75 -27 72 0 140 65 166 33 13 38 13 85 0z"/>
<path d="M3712 2449 c-63 -19 -96 -125 -53 -168 26 -26 68 -47 111 -55 68 -12
102 -60 68 -94 -21 -21 -90 -14 -131 13 -35 24 -38 25 -62 9 -29 -19 -31 -27
-9 -49 64 -63 193 -69 260 -12 19 16 27 36 31 68 7 66 -26 100 -132 137 -82
28 -100 47 -75 77 20 24 102 19 135 -7 l28 -22 19 24 c25 31 20 41 -32 68 -47
23 -101 27 -158 11z"/>
<path d="M6004 2448 c-5 -7 -10 -97 -12 -200 l-4 -186 32 -7 c17 -4 34 -5 36
-2 3 3 9 61 13 129 l7 123 49 -97 c46 -91 51 -97 77 -94 25 2 34 15 76 97 l47
94 3 -122 3 -123 34 0 35 0 0 195 0 195 -40 0 -39 0 -56 -110 c-31 -60 -60
-110 -63 -110 -4 0 -36 50 -72 110 -35 61 -70 110 -76 110 -7 0 -19 3 -27 6
-8 3 -19 -1 -23 -8z"/>
<path d="M6877 2453 c-4 -3 -7 -93 -7 -200 l0 -193 40 0 39 0 3 131 3 130 99
-130 100 -131 43 0 43 0 0 195 0 195 -35 0 c-34 0 -35 -1 -35 -37 -1 -46 -11
-227 -14 -230 -1 -1 -51 61 -111 137 -91 118 -113 140 -135 140 -15 0 -30 -3
-33 -7z"/>
<path d="M8224 2441 c-43 -20 -74 -67 -74 -114 0 -40 50 -82 122 -101 68 -19
98 -39 98 -66 0 -27 -22 -40 -68 -40 -48 0 -79 13 -102 42 -15 18 -16 18 -43
-10 l-28 -29 31 -26 c58 -50 178 -60 237 -22 30 20 56 80 49 111 -9 33 -52 81
-81 88 -14 4 -50 16 -80 27 -46 17 -55 25 -55 44 0 46 79 61 137 25 l33 -20
20 22 20 22 -22 23 c-41 44 -127 55 -194 24z"/>
<path d="M4012 2258 l3 -193 33 -3 32 -3 0 128 c1 146 -1 146 72 13 23 -41 42
-76 42 -77 1 -1 13 -4 27 -8 26 -6 30 -1 83 97 l56 103 1 -90 c3 -182 3 -184
54 -171 l25 6 0 195 0 195 -44 0 -45 0 -58 -115 c-32 -63 -62 -114 -67 -112
-5 2 -38 53 -73 115 l-65 112 -39 0 -39 0 2 -192z"/>
<path d="M4587 2273 c-42 -98 -79 -186 -83 -195 -5 -15 0 -18 30 -18 29 0 38
5 51 30 l16 30 92 0 93 0 15 -32 c11 -27 21 -34 48 -36 18 -2 37 0 42 5 4 4
-20 69 -55 143 -34 74 -72 161 -85 193 -22 53 -26 57 -55 57 -33 0 -33 0 -109
-177z m169 -80 c-2 -2 -31 -3 -64 -1 l-61 3 32 75 31 75 33 -74 c19 -41 32
-76 29 -78z"/>
<path d="M4960 2256 l0 -196 40 0 40 0 0 60 0 60 33 0 c27 1 41 -10 92 -65 57
-63 63 -66 99 -63 l39 3 -47 69 c-47 68 -47 68 -28 90 62 68 55 165 -15 212
-22 15 -52 19 -140 22 l-113 4 0 -196z m214 111 c22 -16 26 -78 7 -101 -10
-12 -31 -16 -77 -16 l-64 0 0 65 0 65 58 0 c32 0 66 -6 76 -13z"/>
<path d="M6507 2393 c-2 -32 -2 -120 1 -195 l5 -138 144 0 144 0 -3 33 -3 32
-107 3 -108 3 0 49 0 50 105 0 105 0 0 30 0 30 -105 0 -105 0 0 45 0 44 103 3
102 3 3 33 3 32 -139 0 -140 0 -5 -57z"/>
<path d="M7340 2255 l0 -195 103 0 c123 0 172 18 211 77 54 82 44 183 -26 251
-51 51 -86 62 -200 62 l-88 0 0 -195z m193 111 c50 -21 70 -50 75 -111 4 -52
3 -56 -31 -90 -35 -35 -38 -36 -99 -33 l-63 3 -3 123 -3 122 46 0 c25 0 60 -6
78 -14z"/>
<path d="M7787 2443 c-9 -8 -9 -310 -1 -352 l7 -31 144 0 144 0 -3 33 -3 32
-108 3 -108 3 3 47 3 47 35 -3 c59 -6 158 8 164 24 14 37 -3 44 -105 44 l-99
0 0 45 0 45 105 0 105 0 0 35 0 35 -138 0 c-76 0 -142 -3 -145 -7z"/>
<path d="M5603 2300 c-43 -17 -57 -81 -25 -119 23 -29 76 -31 103 -4 55 55 -6
151 -78 123z"/>
<path d="M4687 1793 c-16 -4 -17 -16 -15 -121 l3 -117 72 0 c68 0 75 2 104 31
54 55 47 150 -14 188 -23 14 -119 27 -150 19z m129 -56 c20 -18 27 -33 28 -66
1 -54 -27 -81 -85 -81 l-39 0 0 85 0 85 34 0 c22 0 45 -9 62 -23z"/>
<path d="M4990 1675 l0 -125 85 0 c69 0 85 3 85 15 0 12 -14 15 -65 15 l-65 0
0 35 0 35 60 0 c47 0 60 3 60 15 0 11 -12 15 -44 15 -65 0 -76 7 -76 46 l0 34
60 0 c53 0 60 2 60 20 0 18 -7 20 -80 20 l-80 0 0 -125z"/>
<path d="M5244 1773 c6 -25 35 -109 68 -195 8 -21 17 -28 37 -28 23 0 29 8 53
68 14 37 38 93 52 125 l26 57 -25 0 c-21 0 -28 -11 -62 -100 -21 -55 -41 -100
-44 -100 -4 0 -21 45 -39 100 -27 83 -36 100 -52 100 -17 0 -19 -4 -14 -27z"/>
<path d="M5552 1678 l3 -123 88 -3 c69 -2 87 0 87 11 0 10 -19 16 -68 21 -66
7 -68 7 -70 36 l-2 30 60 0 c53 0 60 2 60 20 0 18 -7 20 -60 20 l-60 0 0 35 0
35 65 0 c58 0 65 2 65 20 0 18 -7 20 -85 20 l-86 0 3 -122z"/>
<path d="M5810 1675 l0 -125 80 0 c63 0 80 3 80 15 0 10 -15 15 -57 17 l-58 3
-3 108 c-2 99 -4 107 -22 107 -19 0 -20 -7 -20 -125z"/>
<path d="M6073 1788 c-25 -12 -63 -82 -63 -117 0 -34 30 -90 56 -108 32 -21
107 -19 147 4 76 45 68 176 -14 219 -32 16 -94 17 -126 2z m102 -38 c31 -12
57 -66 48 -101 -14 -57 -69 -82 -122 -55 -57 30 -57 125 0 153 29 15 40 16 74
3z"/>
<path d="M6368 1794 c-5 -4 -8 -61 -8 -126 0 -110 1 -118 19 -118 16 0 20 8
23 43 l3 42 54 5 c60 6 81 25 81 75 0 48 -36 76 -107 82 -32 3 -61 2 -65 -3z
m120 -46 c7 -7 12 -21 12 -33 0 -31 -19 -45 -62 -45 l-38 0 0 45 0 45 38 0
c21 0 43 -5 50 -12z"/>
<path d="M6626 1785 c-3 -9 -6 -66 -6 -126 l0 -109 90 0 c53 0 90 4 90 10 0 6
0 13 0 17 0 4 -30 7 -68 7 l-67 1 -3 33 -3 32 61 0 c53 0 61 2 58 18 -2 13
-15 18 -61 20 l-57 3 0 34 0 35 65 0 c56 0 65 3 65 18 0 15 -11 18 -79 21 -65
2 -79 -1 -85 -14z"/>
<path d="M6918 1793 c-16 -4 -18 -19 -18 -124 0 -117 0 -119 23 -119 20 0 22
4 19 40 -4 40 -4 40 30 40 30 0 37 -6 57 -40 14 -25 29 -40 42 -40 25 0 24 8
-6 52 -24 35 -24 36 -5 53 26 24 27 95 3 117 -18 16 -114 30 -145 21z m110
-45 c17 -17 15 -65 -4 -72 -9 -3 -31 -6 -50 -6 -34 0 -34 0 -34 45 l0 45 38 0
c21 0 43 -5 50 -12z"/>
</g>
</svg>
